<svg width="908" height="175" viewBox="0 0 908 175" fill="none" xmlns="http://www.w3.org/2000/svg">
<path d="M2 31V87.6667C2 103.307 14.768 116 30.5 116C46.232 116 59 103.307 59 87.6667V31C59 46.64 46.232 59.3333 30.5 59.3333C14.768 59.3333 2 46.64 2 31Z" fill="black" stroke="black" stroke-width="3" stroke-miterlimit="10"/>
<path d="M30.5 59C46.2401 59 59 46.2401 59 30.5C59 14.7599 46.2401 2 30.5 2C14.7599 2 2 14.7599 2 30.5C2 46.2401 14.7599 59 30.5 59Z" stroke="black" stroke-width="3" stroke-miterlimit="10"/>
<path d="M87 2H30.3333C14.6933 2 2 14.768 2 30.5C2 46.232 14.6933 59 30.3333 59H87C71.36 59 58.6667 46.232 58.6667 30.5C58.6667 14.768 71.36 2 87 2Z" fill="black" stroke="black" stroke-width="3" stroke-miterlimit="10"/>
<path d="M87.5 59C103.24 59 116 46.2401 116 30.5C116 14.7599 103.24 2 87.5 2C71.7599 2 59 14.7599 59 30.5C59 46.2401 71.7599 59 87.5 59Z" stroke="black" stroke-width="3" stroke-miterlimit="10"/>
<path d="M173 145V87.6667C173 71.8427 160.232 59 144.5 59C128.768 59 116 71.8427 116 87.6667V145C116 129.176 128.768 116.333 144.5 116.333C160.232 116.333 173 129.176 173 145Z" fill="black" stroke="black" stroke-width="3" stroke-miterlimit="10"/>
<path d="M144.5 173C160.24 173 173 160.24 173 144.5C173 128.76 160.24 116 144.5 116C128.76 116 116 128.76 116 144.5C116 160.24 128.76 173 144.5 173Z" stroke="black" stroke-width="3" stroke-miterlimit="10"/>
<path d="M87 173H144.333C160.157 173 173 160.232 173 144.5C173 128.768 160.157 116 144.333 116H87C102.824 116 115.667 128.768 115.667 144.5C115.667 160.232 102.824 173 87 173Z" fill="black" stroke="black" stroke-width="3" stroke-miterlimit="10"/>
<path d="M87.5 173C103.24 173 116 160.24 116 144.5C116 128.76 103.24 116 87.5 116C71.7599 116 59 128.76 59 144.5C59 160.24 71.7599 173 87.5 173Z" stroke="black" stroke-width="3" stroke-miterlimit="10"/>
<path d="M224.968 130V62.992H268.744V73.36H237.544V90.832H265.672V101.2H237.544V130H224.968ZM304.515 131.152C300.547 131.152 297.027 130.544 293.955 129.328C290.883 128.112 288.291 126.384 286.179 124.144C284.131 121.904 282.563 119.216 281.475 116.08C280.387 112.88 279.843 109.296 279.843 105.328C279.843 101.296 280.387 97.68 281.475 94.48C282.627 91.28 284.227 88.56 286.275 86.32C288.323 84.08 290.787 82.352 293.667 81.136C296.611 79.92 299.907 79.312 303.555 79.312C307.139 79.312 310.371 79.92 313.251 81.136C316.131 82.288 318.563 83.952 320.547 86.128C322.595 88.304 324.163 90.928 325.25 94C326.339 97.072 326.883 100.464 326.883 104.176V108.208H292.131V109.456C292.131 113.04 293.251 115.952 295.491 118.192C297.731 120.368 300.867 121.456 304.899 121.456C307.971 121.456 310.595 120.848 312.771 119.632C315.011 118.352 316.867 116.688 318.339 114.64L325.347 121.648C323.555 124.272 320.931 126.512 317.475 128.368C314.083 130.224 309.763 131.152 304.515 131.152ZM303.651 88.336C300.195 88.336 297.411 89.424 295.299 91.6C293.187 93.776 292.131 96.656 292.131 100.24V100.912H314.595V100.048C314.595 96.464 313.603 93.616 311.619 91.504C309.699 89.392 307.043 88.336 303.651 88.336ZM339.325 130V80.464H351.613V89.2H352.093C353.181 86.512 354.845 84.208 357.085 82.288C359.389 80.304 362.557 79.312 366.589 79.312C371.453 79.312 375.389 80.944 378.397 84.208C381.469 87.408 383.005 92.016 383.005 98.032V130H370.717V99.76C370.717 92.592 367.613 89.008 361.405 89.008C360.125 89.008 358.909 89.168 357.757 89.488C356.605 89.808 355.549 90.32 354.589 91.024C353.693 91.664 352.957 92.464 352.381 93.424C351.869 94.384 351.613 95.536 351.613 96.88V130H339.325ZM419.64 131.152C415.672 131.152 412.152 130.544 409.08 129.328C406.008 128.112 403.416 126.384 401.304 124.144C399.256 121.904 397.688 119.216 396.6 116.08C395.512 112.88 394.968 109.296 394.968 105.328C394.968 101.296 395.512 97.68 396.6 94.48C397.752 91.28 399.352 88.56 401.4 86.32C403.448 84.08 405.912 82.352 408.792 81.136C411.736 79.92 415.032 79.312 418.68 79.312C422.264 79.312 425.496 79.92 428.376 81.136C431.256 82.288 433.688 83.952 435.672 86.128C437.72 88.304 439.288 90.928 440.375 94C441.464 97.072 442.008 100.464 442.008 104.176V108.208H407.256V109.456C407.256 113.04 408.376 115.952 410.616 118.192C412.856 120.368 415.992 121.456 420.024 121.456C423.096 121.456 425.72 120.848 427.896 119.632C430.136 118.352 431.992 116.688 433.464 114.64L440.472 121.648C438.68 124.272 436.056 126.512 432.6 128.368C429.208 130.224 424.888 131.152 419.64 131.152ZM418.776 88.336C415.32 88.336 412.536 89.424 410.424 91.6C408.312 93.776 407.256 96.656 407.256 100.24V100.912H429.72V100.048C429.72 96.464 428.728 93.616 426.744 91.504C424.824 89.392 422.168 88.336 418.776 88.336ZM522.957 81.904H521.997V130H511.245V62.992H526.701L544.269 111.088H545.229V62.992H555.981V130H540.525L522.957 81.904ZM592.327 131.152C588.359 131.152 584.839 130.544 581.767 129.328C578.695 128.112 576.103 126.384 573.991 124.144C571.943 121.904 570.375 119.216 569.287 116.08C568.199 112.88 567.655 109.296 567.655 105.328C567.655 101.296 568.199 97.68 569.287 94.48C570.439 91.28 572.039 88.56 574.087 86.32C576.135 84.08 578.599 82.352 581.479 81.136C584.423 79.92 587.719 79.312 591.367 79.312C594.951 79.312 598.183 79.92 601.063 81.136C603.943 82.288 606.375 83.952 608.359 86.128C610.407 88.304 611.975 90.928 613.063 94C614.151 97.072 614.695 100.464 614.695 104.176V108.208H579.943V109.456C579.943 113.04 581.063 115.952 583.303 118.192C585.543 120.368 588.679 121.456 592.711 121.456C595.783 121.456 598.407 120.848 600.583 119.632C602.823 118.352 604.679 116.688 606.151 114.64L613.159 121.648C611.367 124.272 608.743 126.512 605.287 128.368C601.895 130.224 597.575 131.152 592.327 131.152ZM591.463 88.336C588.007 88.336 585.223 89.424 583.111 91.6C580.999 93.776 579.943 96.656 579.943 100.24V100.912H602.407V100.048C602.407 96.464 601.415 93.616 599.431 91.504C597.511 89.392 594.855 88.336 591.463 88.336ZM652.098 130C647.362 130 643.874 128.752 641.634 126.256C639.394 123.76 638.274 120.528 638.274 116.56V90.16H623.874V80.464H633.666C635.65 80.464 637.058 80.08 637.89 79.312C638.722 78.48 639.138 77.04 639.138 74.992V62.992H650.562V80.464H670.722V90.16H650.562V120.304H670.722V130H652.098ZM678.844 80.464H689.116L693.34 121.36H694.204L700.924 80.464H712.156L718.78 121.36H719.644L723.964 80.464H733.756L727.42 130H712.54L706.78 93.616H705.916L700.06 130H685.18L678.844 80.464ZM763.863 131.152C760.087 131.152 756.695 130.544 753.687 129.328C750.743 128.112 748.215 126.384 746.103 124.144C744.055 121.904 742.455 119.184 741.303 115.984C740.215 112.784 739.671 109.2 739.671 105.232C739.671 101.264 740.215 97.68 741.303 94.48C742.455 91.28 744.055 88.56 746.103 86.32C748.215 84.08 750.743 82.352 753.687 81.136C756.695 79.92 760.087 79.312 763.863 79.312C767.575 79.312 770.935 79.92 773.943 81.136C776.951 82.352 779.479 84.08 781.527 86.32C783.639 88.56 785.239 91.28 786.327 94.48C787.479 97.68 788.055 101.264 788.055 105.232C788.055 109.2 787.479 112.784 786.327 115.984C785.239 119.184 783.639 121.904 781.527 124.144C779.479 126.384 776.951 128.112 773.943 129.328C770.935 130.544 767.575 131.152 763.863 131.152ZM763.863 121.744C767.383 121.744 770.167 120.688 772.215 118.576C774.263 116.4 775.287 113.232 775.287 109.072V101.392C775.287 97.232 774.263 94.096 772.215 91.984C770.167 89.808 767.383 88.72 763.863 88.72C760.343 88.72 757.559 89.808 755.511 91.984C753.463 94.096 752.439 97.232 752.439 101.392V109.072C752.439 113.232 753.463 116.4 755.511 118.576C757.559 120.688 760.343 121.744 763.863 121.744ZM799.825 120.304H812.113V90.16H799.825V80.464H824.401V94H825.169C825.617 92.272 826.225 90.608 826.993 89.008C827.825 87.344 828.849 85.904 830.065 84.688C831.345 83.408 832.881 82.384 834.673 81.616C836.465 80.848 838.609 80.464 841.105 80.464H846.481V91.984H836.305C832.593 91.984 829.681 93.072 827.569 95.248C825.457 97.424 824.401 100.208 824.401 103.6V120.304H841.585V130H799.825V120.304ZM857.58 58.96H869.868V100.624H870.444L877.644 92.752L889.836 80.464H904.14L884.46 99.952L906.252 130H891.564L875.724 106.96L869.868 112.528V130H857.58V58.96Z" fill="black"/>
</svg>
