<svg width="154" height="154" viewBox="0 0 154 154" fill="none" xmlns="http://www.w3.org/2000/svg">
<path d="M2 29V77C2 90.248 13.424 101 27.5 101C41.576 101 53 90.248 53 77V29C53 42.248 41.576 53 27.5 53C13.424 53 2 42.248 2 29Z" fill="black" stroke="black" stroke-width="3" stroke-miterlimit="10"/>
<path d="M27.5 53C41.5833 53 53 41.5833 53 27.5C53 13.4167 41.5833 2 27.5 2C13.4167 2 2 13.4167 2 27.5C2 41.5833 13.4167 53 27.5 53Z" stroke="black" stroke-width="3" stroke-miterlimit="10"/>
<path d="M77 2H27C13.2 2 2 13.424 2 27.5C2 41.576 13.2 53 27 53H77C63.2 53 52 41.576 52 27.5C52 13.424 63.2 2 77 2Z" fill="black" stroke="black" stroke-width="3" stroke-miterlimit="10"/>
<path d="M77 53C90.2548 53 101 41.5833 101 27.5C101 13.4167 90.2548 2 77 2C63.7452 2 53 13.4167 53 27.5C53 41.5833 63.7452 53 77 53Z" stroke="black" stroke-width="3" stroke-miterlimit="10"/>
<path d="M152 128V78C152 64.2 140.576 53 126.5 53C112.424 53 101 64.2 101 78V128C101 114.2 112.424 103 126.5 103C140.576 103 152 114.2 152 128Z" fill="black" stroke="black" stroke-width="3" stroke-miterlimit="10"/>
<path d="M126.5 152C140.583 152 152 140.583 152 126.5C152 112.417 140.583 101 126.5 101C112.417 101 101 112.417 101 126.5C101 140.583 112.417 152 126.5 152Z" stroke="black" stroke-width="3" stroke-miterlimit="10"/>
<path d="M77 152H127C140.8 152 152 140.576 152 126.5C152 112.424 140.8 101 127 101H77C90.8 101 102 112.424 102 126.5C102 140.576 90.8 152 77 152Z" fill="black" stroke="black" stroke-width="3" stroke-miterlimit="10"/>
<path d="M77 152C90.2548 152 101 140.583 101 126.5C101 112.417 90.2548 101 77 101C63.7452 101 53 112.417 53 126.5C53 140.583 63.7452 152 77 152Z" stroke="black" stroke-width="3" stroke-miterlimit="10"/>
</svg>
