<svg width="504" height="504" viewBox="0 0 504 504" fill="none" xmlns="http://www.w3.org/2000/svg">
<path d="M2 92V252.667C2 297.011 39.856 333 86.5 333C133.144 333 171 297.011 171 252.667V92C171 136.344 133.144 172.333 86.5 172.333C39.856 172.333 2 136.344 2 92Z" fill="white" stroke="white" stroke-width="3" stroke-miterlimit="10"/>
<path d="M86.5 171C133.168 171 171 133.168 171 86.5C171 39.8319 133.168 2 86.5 2C39.8319 2 2 39.8319 2 86.5C2 133.168 39.8319 171 86.5 171Z" stroke="white" stroke-width="3" stroke-miterlimit="10"/>
<path d="M251 2H85C39.184 2 2 39.856 2 86.5C2 133.144 39.184 171 85 171H251C205.184 171 168 133.144 168 86.5C168 39.856 205.184 2 251 2Z" fill="white" stroke="white" stroke-width="3" stroke-miterlimit="10"/>
<path d="M252 171C296.735 171 333 133.168 333 86.5C333 39.8319 296.735 2 252 2C207.265 2 171 39.8319 171 86.5C171 133.168 207.265 171 252 171Z" stroke="white" stroke-width="3" stroke-miterlimit="10"/>
<path d="M502 423V255C502 208.632 464.144 171 417.5 171C370.856 171 333 208.632 333 255V423C333 376.632 370.856 339 417.5 339C464.144 339 502 376.632 502 423Z" fill="white" stroke="white" stroke-width="3" stroke-miterlimit="10"/>
<path d="M417.5 502C464.168 502 502 464.168 502 417.5C502 370.832 464.168 333 417.5 333C370.832 333 333 370.832 333 417.5C333 464.168 370.832 502 417.5 502Z" stroke="white" stroke-width="3" stroke-miterlimit="10"/>
<path d="M251 502H418.333C464.517 502 502 464.144 502 417.5C502 370.856 464.517 333 418.333 333H251C297.184 333 334.667 370.856 334.667 417.5C334.667 464.144 297.184 502 251 502Z" fill="white" stroke="white" stroke-width="3" stroke-miterlimit="10"/>
<path d="M252 502C296.735 502 333 464.168 333 417.5C333 370.832 296.735 333 252 333C207.265 333 171 370.832 171 417.5C171 464.168 207.265 502 252 502Z" stroke="white" stroke-width="3" stroke-miterlimit="10"/>
</svg>
