<svg width="471" height="93" viewBox="0 0 471 93" fill="none" xmlns="http://www.w3.org/2000/svg">
<path d="M2 17.0938V46.5869C2 54.727 8.60948 61.3335 16.7533 61.3335C24.8971 61.3335 31.5066 54.727 31.5066 46.5869V17.0938C31.5066 25.2339 24.8971 31.8403 16.7533 31.8403C8.60948 31.8403 2 25.2339 2 17.0938Z" fill="white" stroke="white" stroke-width="3" stroke-miterlimit="10"/>
<path d="M16.7533 31.6667C24.9013 31.6667 31.5066 25.0256 31.5066 16.8333C31.5066 8.64111 24.9013 2 16.7533 2C8.60528 2 2 8.64111 2 16.8333C2 25.0256 8.60528 31.6667 16.7533 31.6667Z" stroke="white" stroke-width="3" stroke-miterlimit="10"/>
<path d="M46.0011 2H16.667C8.57083 2 2 8.64533 2 16.8333C2 25.0213 8.57083 31.6667 16.667 31.6667H46.0011C37.9049 31.6667 31.3341 25.0213 31.3341 16.8333C31.3341 8.64533 37.9049 2 46.0011 2Z" fill="white" stroke="white" stroke-width="3" stroke-miterlimit="10"/>
<path d="M46.2592 31.6667C54.4072 31.6667 61.0125 25.0256 61.0125 16.8333C61.0125 8.64111 54.4072 2 46.2592 2C38.1111 2 31.5059 8.64111 31.5059 16.8333C31.5059 25.0256 38.1111 31.6667 46.2592 31.6667Z" stroke="white" stroke-width="3" stroke-miterlimit="10"/>
<path d="M90.5203 76.4267V46.5866C90.5203 38.3507 83.9108 31.6665 75.767 31.6665C67.6232 31.6665 61.0137 38.3507 61.0137 46.5866V76.4267C61.0137 68.1909 67.6232 61.5067 75.767 61.5067C83.9108 61.5067 90.5203 68.1909 90.5203 76.4267Z" fill="white" stroke="white" stroke-width="3" stroke-miterlimit="10"/>
<path d="M75.767 91.0002C83.915 91.0002 90.5203 84.3591 90.5203 76.1668C90.5203 67.9746 83.915 61.3335 75.767 61.3335C67.619 61.3335 61.0137 67.9746 61.0137 76.1668C61.0137 84.3591 67.619 91.0002 75.767 91.0002Z" stroke="white" stroke-width="3" stroke-miterlimit="10"/>
<path d="M46.002 91.0002H75.6811C83.8726 91.0002 90.5207 84.3548 90.5207 76.1668C90.5207 67.9788 83.8726 61.3335 75.6811 61.3335H46.002C54.1934 61.3335 60.8415 67.9788 60.8415 76.1668C60.8415 84.3548 54.1934 91.0002 46.002 91.0002Z" fill="white" stroke="white" stroke-width="3" stroke-miterlimit="10"/>
<path d="M46.2592 91.0002C54.4072 91.0002 61.0125 84.3591 61.0125 76.1668C61.0125 67.9746 54.4072 61.3335 46.2592 61.3335C38.1111 61.3335 31.5059 67.9746 31.5059 76.1668C31.5059 84.3591 38.1111 91.0002 46.2592 91.0002Z" stroke="white" stroke-width="3" stroke-miterlimit="10"/>
<path d="M117.281 66.0938V32.5897H139.169V37.7737H123.569V46.5097H137.633V51.6937H123.569V66.0938H117.281ZM157.054 66.6698C155.07 66.6698 153.31 66.3657 151.774 65.7577C150.238 65.1497 148.942 64.2857 147.886 63.1657C146.862 62.0457 146.078 60.7017 145.534 59.1337C144.99 57.5337 144.718 55.7417 144.718 53.7578C144.718 51.7417 144.99 49.9337 145.534 48.3337C146.11 46.7337 146.91 45.3737 147.934 44.2537C148.958 43.1337 150.19 42.2697 151.63 41.6617C153.102 41.0538 154.75 40.7498 156.574 40.7498C158.366 40.7498 159.982 41.0538 161.422 41.6617C162.862 42.2377 164.078 43.0697 165.07 44.1577C166.094 45.2457 166.878 46.5577 167.422 48.0937C167.966 49.6297 168.238 51.3257 168.238 53.1817V55.1977H150.862V55.8217C150.862 57.6137 151.422 59.0697 152.542 60.1897C153.662 61.2777 155.23 61.8217 157.246 61.8217C158.782 61.8217 160.094 61.5177 161.182 60.9097C162.302 60.2697 163.23 59.4377 163.966 58.4137L167.47 61.9177C166.574 63.2297 165.262 64.3497 163.534 65.2777C161.838 66.2057 159.678 66.6698 157.054 66.6698ZM156.622 45.2617C154.894 45.2617 153.502 45.8057 152.446 46.8937C151.39 47.9817 150.862 49.4217 150.862 51.2137V51.5497H162.094V51.1177C162.094 49.3257 161.598 47.9017 160.606 46.8457C159.646 45.7897 158.318 45.2617 156.622 45.2617ZM174.459 66.0938V41.3257H180.603V45.6937H180.843C181.387 44.3497 182.219 43.1977 183.339 42.2377C184.491 41.2457 186.075 40.7498 188.091 40.7498C190.523 40.7498 192.491 41.5657 193.995 43.1977C195.531 44.7977 196.299 47.1017 196.299 50.1097V66.0938H190.155V50.9737C190.155 47.3897 188.603 45.5977 185.499 45.5977C184.859 45.5977 184.251 45.6777 183.675 45.8377C183.099 45.9977 182.571 46.2537 182.091 46.6057C181.643 46.9257 181.275 47.3257 180.987 47.8057C180.731 48.2857 180.603 48.8617 180.603 49.5337V66.0938H174.459ZM214.617 66.6698C212.633 66.6698 210.873 66.3657 209.337 65.7577C207.801 65.1497 206.505 64.2857 205.449 63.1657C204.425 62.0457 203.641 60.7017 203.097 59.1337C202.553 57.5337 202.281 55.7417 202.281 53.7578C202.281 51.7417 202.553 49.9337 203.097 48.3337C203.673 46.7337 204.473 45.3737 205.497 44.2537C206.521 43.1337 207.753 42.2697 209.193 41.6617C210.665 41.0538 212.313 40.7498 214.137 40.7498C215.929 40.7498 217.545 41.0538 218.985 41.6617C220.425 42.2377 221.641 43.0697 222.633 44.1577C223.657 45.2457 224.441 46.5577 224.985 48.0937C225.529 49.6297 225.801 51.3257 225.801 53.1817V55.1977H208.425V55.8217C208.425 57.6137 208.985 59.0697 210.105 60.1897C211.225 61.2777 212.793 61.8217 214.809 61.8217C216.345 61.8217 217.657 61.5177 218.745 60.9097C219.865 60.2697 220.793 59.4377 221.529 58.4137L225.033 61.9177C224.137 63.2297 222.825 64.3497 221.097 65.2777C219.401 66.2057 217.241 66.6698 214.617 66.6698ZM214.185 45.2617C212.457 45.2617 211.065 45.8057 210.009 46.8937C208.953 47.9817 208.425 49.4217 208.425 51.2137V51.5497H219.657V51.1177C219.657 49.3257 219.161 47.9017 218.169 46.8457C217.209 45.7897 215.881 45.2617 214.185 45.2617ZM266.275 42.0457H265.795V66.0938H260.419V32.5897H268.147L276.931 56.6377H277.411V32.5897H282.787V66.0938H275.059L266.275 42.0457ZM300.96 66.6698C298.976 66.6698 297.216 66.3657 295.68 65.7577C294.144 65.1497 292.848 64.2857 291.792 63.1657C290.768 62.0457 289.984 60.7017 289.44 59.1337C288.896 57.5337 288.624 55.7417 288.624 53.7578C288.624 51.7417 288.896 49.9337 289.44 48.3337C290.016 46.7337 290.816 45.3737 291.84 44.2537C292.864 43.1337 294.096 42.2697 295.536 41.6617C297.008 41.0538 298.656 40.7498 300.48 40.7498C302.272 40.7498 303.888 41.0538 305.328 41.6617C306.768 42.2377 307.984 43.0697 308.976 44.1577C310 45.2457 310.784 46.5577 311.328 48.0937C311.872 49.6297 312.144 51.3257 312.144 53.1817V55.1977H294.768V55.8217C294.768 57.6137 295.328 59.0697 296.448 60.1897C297.568 61.2777 299.136 61.8217 301.152 61.8217C302.688 61.8217 304 61.5177 305.088 60.9097C306.208 60.2697 307.136 59.4377 307.872 58.4137L311.376 61.9177C310.48 63.2297 309.168 64.3497 307.44 65.2777C305.744 66.2057 303.584 66.6698 300.96 66.6698ZM300.528 45.2617C298.8 45.2617 297.408 45.8057 296.352 46.8937C295.296 47.9817 294.768 49.4217 294.768 51.2137V51.5497H306V51.1177C306 49.3257 305.504 47.9017 304.512 46.8457C303.552 45.7897 302.224 45.2617 300.528 45.2617ZM330.846 66.0938C328.478 66.0938 326.734 65.4697 325.614 64.2217C324.494 62.9737 323.934 61.3577 323.934 59.3737V46.1737H316.734V41.3257H321.63C322.622 41.3257 323.326 41.1337 323.742 40.7498C324.158 40.3337 324.366 39.6137 324.366 38.5897V32.5897H330.078V41.3257H340.158V46.1737H330.078V61.2457H340.158V66.0938H330.846ZM344.219 41.3257H349.355L351.467 61.7737H351.899L355.259 41.3257H360.875L364.187 61.7737H364.619L366.779 41.3257H371.675L368.507 66.0938H361.067L358.187 47.9017H357.755L354.827 66.0938H347.387L344.219 41.3257ZM386.728 66.6698C384.84 66.6698 383.144 66.3657 381.64 65.7577C380.168 65.1497 378.904 64.2857 377.848 63.1657C376.824 62.0457 376.024 60.6857 375.448 59.0857C374.904 57.4857 374.632 55.6937 374.632 53.7097C374.632 51.7257 374.904 49.9337 375.448 48.3337C376.024 46.7337 376.824 45.3737 377.848 44.2537C378.904 43.1337 380.168 42.2697 381.64 41.6617C383.144 41.0538 384.84 40.7498 386.728 40.7498C388.584 40.7498 390.264 41.0538 391.768 41.6617C393.272 42.2697 394.536 43.1337 395.56 44.2537C396.616 45.3737 397.416 46.7337 397.96 48.3337C398.536 49.9337 398.824 51.7257 398.824 53.7097C398.824 55.6937 398.536 57.4857 397.96 59.0857C397.416 60.6857 396.616 62.0457 395.56 63.1657C394.536 64.2857 393.272 65.1497 391.768 65.7577C390.264 66.3657 388.584 66.6698 386.728 66.6698ZM386.728 61.9657C388.488 61.9657 389.88 61.4377 390.904 60.3817C391.928 59.2937 392.44 57.7097 392.44 55.6297V51.7897C392.44 49.7097 391.928 48.1417 390.904 47.0857C389.88 45.9977 388.488 45.4537 386.728 45.4537C384.968 45.4537 383.576 45.9977 382.552 47.0857C381.528 48.1417 381.016 49.7097 381.016 51.7897V55.6297C381.016 57.7097 381.528 59.2937 382.552 60.3817C383.576 61.4377 384.968 61.9657 386.728 61.9657ZM404.709 61.2457H410.853V46.1737H404.709V41.3257H416.997V48.0937H417.381C417.605 47.2297 417.909 46.3977 418.293 45.5977C418.709 44.7657 419.221 44.0457 419.829 43.4377C420.469 42.7977 421.237 42.2857 422.133 41.9017C423.029 41.5177 424.101 41.3257 425.349 41.3257H428.037V47.0857H422.949C421.093 47.0857 419.637 47.6297 418.581 48.7177C417.525 49.8057 416.997 51.1977 416.997 52.8937V61.2457H425.589V66.0938H404.709V61.2457ZM433.587 30.5737H439.731V51.4057H440.019L443.619 47.4697L449.715 41.3257H456.867L447.027 51.0697L457.923 66.0938H450.579L442.659 54.5737L439.731 57.3577V66.0938H433.587V30.5737Z" fill="white"/>
</svg>
